# xmcd
#
# Track frame offsets:
#	150
#	17362
#	31484
#	54844
#	69531
#	87006
#	100970
#	114103
#	138452
#	155374
#
# Disc length: 2400 seconds
#
# Revision: 1
# Processed by: cddbd v1.5.2PL0 Copyright (c) Steve Scherf et al.
# Submitted via: audiograbber 1.83.01
#
DISCID=6f095e0a
DTITLE=Alvin Lee - RX5
DYEAR=1900
DGENRE=
TTITLE0=Hang On
TTITLE1=Lady Luck
TTITLE2=Can't Stop
TTITLE3=Wrong Side Of The Law
TTITLE4=Nutbush City Limits
TTITLE5=Rock-N Roll Guitar Picker
TTITLE6=Double Loser 
TTITLE7=Fool No More 
TTITLE8=Dangerous World
TTITLE9=High Times 
EXTD=digitalized and remastered from vinyl-record
EXTT0=
EXTT1=
EXTT2=
EXTT3=
EXTT4=
EXTT5=
EXTT6=
EXTT7=
EXTT8=
EXTT9=
PLAYORDER=
